<svg xmlns="http://www.w3.org/2000/svg" xmlns:xlink="http://www.w3.org/1999/xlink" viewBoxSize="575" data-root-id="2010456424977" version="1.1" id="Layer_1" x="173" y="231.421" viewBox="19.399999618530273 47.79999542236328 320.6000061035156 264.0000305175781" xml:space="preserve" height="85.38916015625" width="103.69601890681513" preserveAspectRatio="xMinYMin" zoom="1" editorType="buyer" data-layer-role="icon" style="height: 85.3892px; width: 103.696px"><linearGradient id="SVGID_1_" gradientUnits="userSpaceOnUse" x1="15.2567" y1="122.8031" x2="341.3317" y2="122.8031" name="Layer 1" zoom="1" data-layer-id="7080838924977"><stop offset="0" style="stop-color: rgb(64, 183, 233);"/><stop offset="0.5045" style="stop-color: rgb(105, 113, 176);"/><stop offset="1" style="stop-color: rgb(201, 52, 146);"/></linearGradient><circle class="st0" cx="54.2" cy="122.8" r="10.5" name="Layer 2" zoom="1" data-layer-id="8141777924977" style="fill: url(&quot;#SVGID_1_&quot;);"/><linearGradient id="SVGID_2_" gradientUnits="userSpaceOnUse" x1="15.2567" y1="138.7259" x2="341.3317" y2="138.7259" name="Layer 3" zoom="1" data-layer-id="7496736824977"><stop offset="0" style="stop-color: rgb(64, 183, 233);"/><stop offset="0.5045" style="stop-color: rgb(105, 113, 176);"/><stop offset="1" style="stop-color: rgb(201, 52, 146);"/></linearGradient><circle class="st1" cx="76.4" cy="138.7" r="11.3" name="Layer 4" zoom="1" data-layer-id="7944624924977" style="fill: url(&quot;#SVGID_2_&quot;);"/><linearGradient id="SVGID_3_" gradientUnits="userSpaceOnUse" x1="15.2567" y1="138.3069" x2="341.3317" y2="138.3069" name="Layer 5" zoom="1" data-layer-id="2953181824977"><stop offset="0" style="stop-color: rgb(64, 183, 233);"/><stop offset="0.5045" style="stop-color: rgb(105, 113, 176);"/><stop offset="1" style="stop-color: rgb(201, 52, 146);"/></linearGradient><circle class="st2" cx="101.6" cy="138.3" r="8.8" name="Layer 6" zoom="1" data-layer-id="8471641324977" style="fill: url(&quot;#SVGID_3_&quot;);"/><linearGradient id="SVGID_4_" gradientUnits="userSpaceOnUse" x1="15.2567" y1="73.3588" x2="341.3317" y2="73.3588" name="Layer 7" zoom="1" data-layer-id="4800633624977"><stop offset="0" style="stop-color: rgb(64, 183, 233);"/><stop offset="0.5045" style="stop-color: rgb(105, 113, 176);"/><stop offset="1" style="stop-color: rgb(201, 52, 146);"/></linearGradient><circle class="st3" cx="97.8" cy="73.4" r="8.4" name="Layer 8" zoom="1" data-layer-id="4489166524977" style="fill: url(&quot;#SVGID_4_&quot;);"/><linearGradient id="SVGID_5_" gradientUnits="userSpaceOnUse" x1="15.2567" y1="115.6798" x2="341.3317" y2="115.6798" name="Layer 9" zoom="1" data-layer-id="3703881224977"><stop offset="0" style="stop-color: rgb(64, 183, 233);"/><stop offset="0.5045" style="stop-color: rgb(105, 113, 176);"/><stop offset="1" style="stop-color: rgb(201, 52, 146);"/></linearGradient><circle class="st4" cx="121.7" cy="115.7" r="6.3" name="Layer 10" zoom="1" data-layer-id="6601373324977" style="fill: url(&quot;#SVGID_5_&quot;);"/><linearGradient id="SVGID_6_" gradientUnits="userSpaceOnUse" x1="15.2567" y1="116.5178" x2="341.3317" y2="116.5178" name="Layer 11" zoom="1" data-layer-id="5592130424977"><stop offset="0" style="stop-color: rgb(64, 183, 233);"/><stop offset="0.5045" style="stop-color: rgb(105, 113, 176);"/><stop offset="1" style="stop-color: rgb(201, 52, 146);"/></linearGradient><circle class="st5" cx="144.7" cy="116.5" r="6.7" name="Layer 12" zoom="1" data-layer-id="4164237924977" style="fill: url(&quot;#SVGID_6_&quot;);"/><linearGradient id="SVGID_7_" gradientUnits="userSpaceOnUse" x1="15.2567" y1="58.6931" x2="341.3317" y2="58.6931" name="Layer 13" zoom="1" data-layer-id="3711738324977"><stop offset="0" style="stop-color: rgb(64, 183, 233);"/><stop offset="0.5045" style="stop-color: rgb(105, 113, 176);"/><stop offset="1" style="stop-color: rgb(201, 52, 146);"/></linearGradient><circle class="st6" cx="152.3" cy="58.7" r="10.9" name="Layer 14" zoom="1" data-layer-id="2267088124977" style="fill: url(&quot;#SVGID_7_&quot;);"/><linearGradient id="SVGID_8_" gradientUnits="userSpaceOnUse" x1="15.2567" y1="91.3767" x2="341.3317" y2="91.3767" name="Layer 15" zoom="1" data-layer-id="3161778524977"><stop offset="0" style="stop-color: rgb(64, 183, 233);"/><stop offset="0.5045" style="stop-color: rgb(105, 113, 176);"/><stop offset="1" style="stop-color: rgb(201, 52, 146);"/></linearGradient><circle class="st7" cx="161.1" cy="91.4" r="7.5" name="Layer 16" zoom="1" data-layer-id="1029655124977" style="fill: url(&quot;#SVGID_8_&quot;);"/><linearGradient id="SVGID_9_" gradientUnits="userSpaceOnUse" x1="15.2567" y1="145.0112" x2="341.3317" y2="145.0112" name="Layer 17" zoom="1" data-layer-id="6886655824977"><stop offset="0" style="stop-color: rgb(64, 183, 233);"/><stop offset="0.5045" style="stop-color: rgb(105, 113, 176);"/><stop offset="1" style="stop-color: rgb(201, 52, 146);"/></linearGradient><circle class="st8" cx="195.9" cy="145" r="11.3" name="Layer 18" zoom="1" data-layer-id="3569232724977" style="fill: url(&quot;#SVGID_9_&quot;);"/><linearGradient id="SVGID_10_" gradientUnits="userSpaceOnUse" x1="15.2567" y1="145.0112" x2="341.3317" y2="145.0112" name="Layer 19" zoom="1" data-layer-id="6246267324977"><stop offset="0" style="stop-color: rgb(64, 183, 233);"/><stop offset="0.5045" style="stop-color: rgb(105, 113, 176);"/><stop offset="1" style="stop-color: rgb(201, 52, 146);"/></linearGradient><circle class="st9" cx="173.2" cy="145" r="7.1" name="Layer 20" zoom="1" data-layer-id="0301071524977" style="fill: url(&quot;#SVGID_10_&quot;);"/><linearGradient id="SVGID_11_" gradientUnits="userSpaceOnUse" x1="15.2567" y1="223.7868" x2="341.3317" y2="223.7868" name="Layer 21" zoom="1" data-layer-id="4264916624977"><stop offset="0" style="stop-color: rgb(64, 183, 233);"/><stop offset="0.5045" style="stop-color: rgb(105, 113, 176);"/><stop offset="1" style="stop-color: rgb(201, 52, 146);"/></linearGradient><circle class="st10" cx="197.5" cy="223.8" r="9.2" name="Layer 22" zoom="1" data-layer-id="2798652924977" style="fill: url(&quot;#SVGID_11_&quot;);"/><linearGradient id="SVGID_12_" gradientUnits="userSpaceOnUse" x1="15.2567" y1="189.0082" x2="341.3317" y2="189.0082" name="Layer 23" zoom="1" data-layer-id="7079751924977"><stop offset="0" style="stop-color: rgb(64, 183, 233);"/><stop offset="0.5045" style="stop-color: rgb(105, 113, 176);"/><stop offset="1" style="stop-color: rgb(201, 52, 146);"/></linearGradient><circle class="st11" cx="223.5" cy="189" r="5.4" name="Layer 24" zoom="1" data-layer-id="2132831524977" style="fill: url(&quot;#SVGID_12_&quot;);"/><linearGradient id="SVGID_13_" gradientUnits="userSpaceOnUse" x1="15.2567" y1="178.1137" x2="341.3317" y2="178.1137" name="Layer 25" zoom="1" data-layer-id="8538519524977"><stop offset="0" style="stop-color: rgb(64, 183, 233);"/><stop offset="0.5045" style="stop-color: rgb(105, 113, 176);"/><stop offset="1" style="stop-color: rgb(201, 52, 146);"/></linearGradient><circle class="st12" cx="285.9" cy="178.1" r="10.1" name="Layer 26" zoom="1" data-layer-id="8722040824977" style="fill: url(&quot;#SVGID_13_&quot;);"/><linearGradient id="SVGID_14_" gradientUnits="userSpaceOnUse" x1="15.2567" y1="165.9621" x2="341.3317" y2="165.9621" name="Layer 27" zoom="1" data-layer-id="1114573524977"><stop offset="0" style="stop-color: rgb(64, 183, 233);"/><stop offset="0.5045" style="stop-color: rgb(105, 113, 176);"/><stop offset="1" style="stop-color: rgb(201, 52, 146);"/></linearGradient><circle class="st13" cx="270.4" cy="166" r="6.3" name="Layer 28" zoom="1" data-layer-id="9238615324977" style="fill: url(&quot;#SVGID_14_&quot;);"/><linearGradient id="SVGID_15_" gradientUnits="userSpaceOnUse" x1="15.2567" y1="160.0959" x2="341.3317" y2="160.0959" name="Layer 29" zoom="1" data-layer-id="6271487524977"><stop offset="0" style="stop-color: rgb(64, 183, 233);"/><stop offset="0.5045" style="stop-color: rgb(105, 113, 176);"/><stop offset="1" style="stop-color: rgb(201, 52, 146);"/></linearGradient><circle class="st14" cx="223.1" cy="160.1" r="8" name="Layer 30" zoom="1" data-layer-id="1969612224977" style="fill: url(&quot;#SVGID_15_&quot;);"/><linearGradient id="SVGID_16_" gradientUnits="userSpaceOnUse" x1="15.2567" y1="148.3633" x2="341.3317" y2="148.3633" name="Layer 31" zoom="1" data-layer-id="9690992724977"><stop offset="0" style="stop-color: rgb(64, 183, 233);"/><stop offset="0.5045" style="stop-color: rgb(105, 113, 176);"/><stop offset="1" style="stop-color: rgb(201, 52, 146);"/></linearGradient><circle class="st15" cx="259.1" cy="148.4" r="9.6" name="Layer 32" zoom="1" data-layer-id="6936876724977" style="fill: url(&quot;#SVGID_16_&quot;);"/><linearGradient id="SVGID_17_" gradientUnits="userSpaceOnUse" x1="15.2567" y1="177.0662" x2="341.3317" y2="177.0662" name="Layer 33" zoom="1" data-layer-id="1851518224977"><stop offset="0" style="stop-color: rgb(64, 183, 233);"/><stop offset="0.5045" style="stop-color: rgb(105, 113, 176);"/><stop offset="1" style="stop-color: rgb(201, 52, 146);"/></linearGradient><path class="st16" d="M316.5,174.3c13,0,23.5-10.5,23.5-23.5c0-13-10.5-23.5-23.5-23.5c-7.8,0-14.8,3.8-19,9.7l-7.1-4.1   c0.7-1.6,1-3.4,1-5.2c0-7.6-6.2-13.8-13.8-13.8c-6.5,0-11.9,4.5-13.4,10.5l-11.2-1c0-0.1,0-0.2,0-0.3c0-9-5.9-16.6-14-19.1l3-10.9   c1,0.2,2,0.3,3,0.3c8.3,0,15.1-6.8,15.1-15.1c0-8.3-6.8-15.1-15.1-15.1c-8.3,0-15.1,6.8-15.1,15.1c0,6.3,3.9,11.7,9.4,14l-3,11   c-1.1-0.2-2.2-0.3-3.3-0.3c-9.4,0-17.4,6.5-19.5,15.3l-10.2-2.3c0.1-0.8,0.2-1.6,0.2-2.5c0-10.2-8-18.6-18.1-19.2l-0.5-8.3   c7-1.3,12.3-7.4,12.3-14.8c0-8.3-6.8-15.1-15.1-15.1c-8.3,0-15.1,6.8-15.1,15.1c0,8.3,6.7,15.1,15,15.1l0.5,8   c-9.9,0.8-17.6,9.1-17.6,19.2c0,4,1.2,7.7,3.3,10.8l-12.4,10.4c-4.3-4.3-10.3-7-16.9-7c-0.7,0-1.4,0-2,0.1l-4.5-26.2   c7.6-1.9,13.3-8.8,13.3-17.1c0-9.7-7.9-17.6-17.6-17.6s-17.6,7.9-17.6,17.6s7.9,17.6,17.6,17.6c0.5,0,1,0,1.5-0.1l4.5,26.1   c-4.7,1-9,3.4-12.2,6.7l-23.2-21.7c2.1-3,3.4-6.7,3.4-10.7c0-10.2-8.3-18.4-18.4-18.4s-18.4,8.3-18.4,18.4   c0,10.2,8.3,18.4,18.4,18.4c5.2,0,9.8-2.1,13.2-5.6l23.2,21.6c-3.1,4-4.9,9.1-4.9,14.5c0,0.2,0,0.3,0,0.5L60.3,155   c-1.6-9.8-10.1-17.2-20.3-17.2c-11.4,0-20.6,9.2-20.6,20.6c0,11.4,9.2,20.6,20.6,20.6c11.4,0,20.6-9.2,20.6-20.6c0-0.2,0-0.4,0-0.6   l54.7-2.8c0.5,3.7,1.9,7,3.8,10l-7.5,5.6c-3.1-3.9-8-6.4-13.4-6.4c-9.5,0-17.2,7.7-17.2,17.2c0,1.6,0.2,3.2,0.7,4.7l-17.6,7.3   c-2.8-4.7-7.9-7.8-13.7-7.8c-8.8,0-15.9,7.1-15.9,15.9c0,8.8,7.1,15.9,15.9,15.9c8.8,0,15.9-7.1,15.9-15.9c0-2-0.4-3.8-1-5.6   l17.3-7.2c2.8,5.8,8.7,9.8,15.5,9.8c9.5,0,17.2-7.7,17.2-17.2c0-3.1-0.8-5.9-2.2-8.4l7.6-5.7c3.8,4.5,9.3,7.5,15.5,8.1l0.2,13.1   c0,0-0.1,0-0.1,0c-11.3,0-20.5,9.2-20.5,20.5c0,1.4,0.1,2.8,0.4,4.2l-3.6,1c-1.9-5.7-7.2-9.8-13.5-9.8c-7.9,0-14.2,6.4-14.2,14.2   c0,7.9,6.4,14.2,14.2,14.2s14.2-6.4,14.2-14.2c0-0.6,0-1.1-0.1-1.6l3.8-1.1c2.4,6.8,8.3,11.9,15.6,13.2l-0.5,6.7   c-0.4,0-0.8,0-1.2,0c-10,0-18,8.1-18,18c0,5.5,2.5,10.4,6.3,13.7l-0.5,1.1l-4,5.8c-1.5-0.6-3.1-1-4.8-1c-6.7,0-12.2,5.4-12.2,12.2   c0,6.7,5.4,12.2,12.2,12.2s12.2-5.4,12.2-12.2c0-4-1.9-7.5-4.9-9.7l4-5.8l0.4-0.9c2.7,1.7,5.9,2.6,9.3,2.6c10,0,18-8.1,18-18   c0-8.6-6-15.7-14-17.6l0.5-6.8c0.3,0,0.6,0,0.9,0c6.5,0,12.3-3,16.1-7.7l4.4,3.4c-1,1.8-1.6,3.9-1.6,6c0,6.9,5.6,12.6,12.6,12.6   c6.9,0,12.6-5.6,12.6-12.6c0-6.9-5.6-12.6-12.6-12.6c-3.7,0-7.1,1.6-9.4,4.2l-4.4-3.4c1.8-3.1,2.9-6.6,2.9-10.4   c0-10.3-7.6-18.9-17.6-20.3l-0.2-13.2c7.6-0.1,14.4-3.7,18.7-9.3l8.4,5.7c-2.2,3.5-3.4,7.6-3.4,12c0,12.5,10.1,22.6,22.6,22.6   c7.3,0,13.8-3.5,18-8.9l12.1,7.8c-1.5,2.4-2.4,5.2-2.4,8.2c0,8.3,6.8,15.1,15.1,15.1c8.3,0,15.1-6.8,15.1-15.1   c0-8.3-6.8-15.1-15.1-15.1c-4.3,0-8.1,1.8-10.9,4.6l-12.3-7.9c2-3.3,3.1-7.2,3.1-11.4c0-0.9-0.1-1.7-0.1-2.6l23.5-3.5   c1.3,6.6,7.1,11.5,14,11.5c3.3,0,6.4-1.1,8.8-3l9.1,11.7c-4.3,3.5-7,8.9-7,14.8c0,10.6,8.6,19.3,19.3,19.3s19.3-8.6,19.3-19.3   c0-2.6-0.5-5.1-1.4-7.3l7.3-4.5c2.5,3.6,6.6,5.9,11.3,5.9c7.6,0,13.8-6.2,13.8-13.8c0-7.6-6.2-13.8-13.8-13.8s-13.8,6.2-13.8,13.8   c0,1.9,0.4,3.8,1.1,5.4L292,203c-3.4-5.6-9.5-9.4-16.5-9.4c-3.7,0-7.1,1-10,2.8l-9.3-12c2.1-2.5,3.4-5.7,3.4-9.2   c0-7.9-6.4-14.2-14.2-14.2c-7.8,0-14.2,6.3-14.2,14.1l-23.7,3.5c-1.1-4.6-3.7-8.7-7.1-11.7l21.1-27.4c3.3,2.3,7.3,3.7,11.6,3.7   c10,0,18.3-7.3,19.8-16.9l11,1c0,0.2,0,0.3,0,0.5c0,7.6,6.2,13.8,13.8,13.8c4.8,0,9-2.4,11.5-6.1l7,4c-1.9,3.4-2.9,7.2-2.9,11.3   C293.1,163.8,303.6,174.3,316.5,174.3z M198,165.2c-3.6-2.4-7.9-3.8-12.6-3.8c-7.1,0-13.4,3.2-17.5,8.3l-8.4-5.8   c2.1-3.6,3.3-7.7,3.3-12.2c0-5.6-1.9-10.7-5.1-14.7l12.3-10.3c3.5,3.8,8.6,6.2,14.2,6.2c8.8,0,16.2-5.9,18.5-14l10.2,2.4   c-0.1,0.6-0.1,1.3-0.1,2c0,5.7,2.4,10.9,6.3,14.5L198,165.2z" name="Layer 34" zoom="1" data-layer-id="5183107724977" style="fill: url(&quot;#SVGID_17_&quot;);"/><linearGradient id="SVGID_18_" gradientUnits="userSpaceOnUse" x1="15.2567" y1="98.2716" x2="341.3317" y2="98.2716" name="Layer 35" zoom="1" data-layer-id="2126502424977"><stop offset="0" style="stop-color: rgb(64, 183, 233);"/><stop offset="0.5045" style="stop-color: rgb(105, 113, 176);"/><stop offset="1" style="stop-color: rgb(201, 52, 146);"/></linearGradient><circle class="st17" cx="283.6" cy="98.3" r="13.4" name="Layer 36" zoom="1" data-layer-id="8793357524977" style="fill: url(&quot;#SVGID_18_&quot;);"/><linearGradient id="SVGID_19_" gradientUnits="userSpaceOnUse" x1="15.2567" y1="114.4228" x2="341.3317" y2="114.4228" name="Layer 37" zoom="1" data-layer-id="2517259524977"><stop offset="0" style="stop-color: rgb(64, 183, 233);"/><stop offset="0.5045" style="stop-color: rgb(105, 113, 176);"/><stop offset="1" style="stop-color: rgb(201, 52, 146);"/></linearGradient><circle class="st18" cx="309" cy="114.4" r="6.7" name="Layer 38" zoom="1" data-layer-id="5937914424977" style="fill: url(&quot;#SVGID_19_&quot;);"/><linearGradient id="SVGID_20_" gradientUnits="userSpaceOnUse" x1="15.2567" y1="106.8804" x2="341.3317" y2="106.8804" name="Layer 39" zoom="1" data-layer-id="8444065524977"><stop offset="0" style="stop-color: rgb(64, 183, 233);"/><stop offset="0.5045" style="stop-color: rgb(105, 113, 176);"/><stop offset="1" style="stop-color: rgb(201, 52, 146);"/></linearGradient><circle class="st19" cx="259.1" cy="106.9" r="6.7" name="Layer 40" zoom="1" data-layer-id="0373033924977" style="fill: url(&quot;#SVGID_20_&quot;);"/><linearGradient id="SVGID_21_" gradientUnits="userSpaceOnUse" x1="15.2567" y1="88.0245" x2="341.3317" y2="88.0245" name="Layer 41" zoom="1" data-layer-id="4065929524977"><stop offset="0" style="stop-color: rgb(64, 183, 233);"/><stop offset="0.5045" style="stop-color: rgb(105, 113, 176);"/><stop offset="1" style="stop-color: rgb(201, 52, 146);"/></linearGradient><circle class="st20" cx="214.3" cy="88" r="7.5" name="Layer 42" zoom="1" data-layer-id="4140444824977" style="fill: url(&quot;#SVGID_21_&quot;);"/><linearGradient id="SVGID_22_" gradientUnits="userSpaceOnUse" x1="15.2567" y1="60.7882" x2="341.3317" y2="60.7882" name="Layer 43" zoom="1" data-layer-id="0404975924977"><stop offset="0" style="stop-color: rgb(64, 183, 233);"/><stop offset="0.5045" style="stop-color: rgb(105, 113, 176);"/><stop offset="1" style="stop-color: rgb(201, 52, 146);"/></linearGradient><circle class="st21" cx="213.5" cy="60.8" r="12.2" name="Layer 44" zoom="1" data-layer-id="3529174624977" style="fill: url(&quot;#SVGID_22_&quot;);"/><linearGradient id="SVGID_23_" gradientUnits="userSpaceOnUse" x1="15.2567" y1="304.6576" x2="341.3317" y2="304.6576" name="Layer 45" zoom="1" data-layer-id="0436691224977"><stop offset="0" style="stop-color: rgb(64, 183, 233);"/><stop offset="0.5045" style="stop-color: rgb(105, 113, 176);"/><stop offset="1" style="stop-color: rgb(201, 52, 146);"/></linearGradient><circle class="st22" cx="94.5" cy="304.7" r="7.1" name="Layer 46" zoom="1" data-layer-id="8868579224977" style="fill: url(&quot;#SVGID_23_&quot;);"/><linearGradient id="SVGID_24_" gradientUnits="userSpaceOnUse" x1="15.2567" y1="260.8701" x2="341.3317" y2="260.8701" name="Layer 47" zoom="1" data-layer-id="0603751624977"><stop offset="0" style="stop-color: rgb(64, 183, 233);"/><stop offset="0.5045" style="stop-color: rgb(105, 113, 176);"/><stop offset="1" style="stop-color: rgb(201, 52, 146);"/></linearGradient><circle class="st23" cx="99.3" cy="260.9" r="10.9" name="Layer 48" zoom="1" data-layer-id="5353575824977" style="fill: url(&quot;#SVGID_24_&quot;);"/><linearGradient id="SVGID_25_" gradientUnits="userSpaceOnUse" x1="15.2567" y1="240.9666" x2="341.3317" y2="240.9666" name="Layer 49" zoom="1" data-layer-id="6661925524977"><stop offset="0" style="stop-color: rgb(64, 183, 233);"/><stop offset="0.5045" style="stop-color: rgb(105, 113, 176);"/><stop offset="1" style="stop-color: rgb(201, 52, 146);"/></linearGradient><circle class="st24" cx="97.8" cy="241" r="5.4" name="Layer 50" zoom="1" data-layer-id="4581953924977" style="fill: url(&quot;#SVGID_25_&quot;);"/><linearGradient id="SVGID_26_" gradientUnits="userSpaceOnUse" x1="15.2567" y1="205.769" x2="341.3317" y2="205.769" name="Layer 51" zoom="1" data-layer-id="4549073124977"><stop offset="0" style="stop-color: rgb(64, 183, 233);"/><stop offset="0.5045" style="stop-color: rgb(105, 113, 176);"/><stop offset="1" style="stop-color: rgb(201, 52, 146);"/></linearGradient><circle class="st25" cx="78.1" cy="205.8" r="7.1" name="Layer 52" zoom="1" data-layer-id="4926609324977" style="fill: url(&quot;#SVGID_26_&quot;);"/><linearGradient id="SVGID_27_" gradientUnits="userSpaceOnUse" x1="15.2567" y1="173.9235" x2="341.3317" y2="173.9235" name="Layer 53" zoom="1" data-layer-id="0949500824977"><stop offset="0" style="stop-color: rgb(64, 183, 233);"/><stop offset="0.5045" style="stop-color: rgb(105, 113, 176);"/><stop offset="1" style="stop-color: rgb(201, 52, 146);"/></linearGradient><circle class="st26" cx="69.3" cy="173.9" r="8" name="Layer 54" zoom="1" data-layer-id="3412203624977" style="fill: url(&quot;#SVGID_27_&quot;);"/></svg>